<?xml version="1.0" standalone="no"?>
<!DOCTYPE svg PUBLIC "-//W3C//DTD SVG 20010904//EN"
 "http://www.w3.org/TR/2001/REC-SVG-20010904/DTD/svg10.dtd">
<svg version="1.0" xmlns="http://www.w3.org/2000/svg"
 width="3543.000000pt" height="1772.000000pt" viewBox="0 0 3543.000000 1772.000000"
 preserveAspectRatio="xMidYMid meet">

<g transform="translate(0.000000,1772.000000) scale(0.100000,-0.100000)"
fill="#000000" stroke="none">
<path d="M15314 14468 c-22 -5 -573 -523 -1934 -1815 -1046 -995 -1905 -1809
-1909 -1811 -3 -1 -632 641 -1396 1427 l-1389 1429 -91 -87 c-51 -47 -1074
-1042 -2274 -2210 l-2182 -2125 114 -115 c63 -64 678 -696 1367 -1405 l1253
-1289 -34 -31 c-19 -16 -746 -707 -1616 -1533 -1241 -1179 -1584 -1511 -1591
-1536 -10 -35 0 -84 21 -104 20 -21 69 -31 103 -21 22 5 443 399 1470 1375
792 751 1518 1442 1615 1534 l176 168 683 -703 684 -704 92 86 c50 48 1073
1043 2273 2211 l2182 2125 -114 115 c-437 444 -1198 1233 -1195 1240 2 4 859
821 1905 1815 1495 1420 1904 1814 1911 1839 10 35 0 84 -21 104 -20 21 -69
31 -103 21z m-29 -157 c-100 -98 -3684 -3499 -3720 -3530 -16 -14 -5 0 25 31
84 86 3752 3568 3759 3568 3 0 -26 -31 -64 -69z m-5334 -2372 c701 -720 1274
-1315 1274 -1322 0 -9 -3462 -3308 -4012 -3823 l-112 -105 -1250 1286 c-688
707 -1251 1290 -1251 1295 0 6 4055 3966 4076 3979 0 1 574 -589 1275 -1310z
m1314 -1448 c-190 -186 -4077 -3872 -4080 -3869 -5 4 4114 3918 4123 3918 4 0
-16 -22 -43 -49z m669 -591 l545 -560 -1887 -1836 c-1038 -1010 -1957 -1906
-2042 -1991 l-156 -154 -454 468 c-250 257 -508 522 -573 589 l-118 122 2063
1961 c1135 1078 2066 1961 2070 1961 4 0 252 -252 552 -560z m-5064 -3584
c-95 -93 -3073 -2918 -3120 -2960 -119 -105 248 247 1629 1558 855 812 1557
1476 1560 1476 3 0 -28 -33 -69 -74z"/>
<path d="M28770 11509 c-97 -40 -416 -75 -582 -64 -43 3 -114 7 -158 10 l-80
5 0 -58 0 -59 68 -6 c204 -17 291 -111 322 -347 13 -103 13 -3332 0 -3424 -27
-182 -115 -261 -307 -273 l-83 -6 0 -59 0 -58 188 7 c241 10 641 10 855 0
l167 -7 0 58 0 59 -72 6 c-95 7 -150 30 -193 79 -71 83 -69 68 -73 706 l-3
572 28 0 c50 0 140 -26 188 -54 25 -15 71 -58 101 -94 30 -37 198 -292 374
-567 289 -452 320 -504 320 -541 0 -35 -5 -47 -30 -68 -17 -14 -47 -28 -68
-31 -62 -11 -62 -11 -62 -70 l0 -55 173 7 c220 10 558 10 710 0 l117 -7 0 59
0 59 -34 6 c-82 16 -174 85 -261 196 -23 30 -251 359 -505 730 -255 371 -471
687 -481 701 l-19 27 306 343 c168 189 329 368 358 397 113 118 253 195 409
227 25 5 27 8 27 60 l0 55 -72 -7 c-95 -10 -711 -10 -855 0 l-113 7 0 -54 0
-54 77 -7 c148 -14 249 -52 284 -108 16 -25 19 -45 17 -92 -7 -113 -41 -163
-344 -497 -242 -266 -300 -323 -377 -367 -51 -29 -210 -81 -248 -81 -19 0 -19
34 -19 1375 0 1094 -3 1375 -12 1374 -7 0 -24 -5 -38 -10z"/>
<path d="M23049 11484 c-136 -35 -296 -48 -536 -41 l-213 6 0 -53 0 -53 81
-11 c173 -25 245 -88 296 -259 16 -54 18 -182 21 -1738 2 -1119 -1 -1706 -7
-1758 -26 -192 -112 -272 -308 -284 l-83 -6 0 -59 0 -58 188 7 c241 10 641 10
855 0 l167 -7 0 58 0 59 -72 6 c-95 7 -150 30 -193 80 -73 85 -70 47 -70 952
0 752 1 816 19 895 52 239 136 401 273 531 79 74 149 118 238 148 128 42 295
37 394 -14 61 -30 126 -102 157 -171 56 -127 57 -141 61 -1129 3 -622 1 -940
-7 -1004 -23 -198 -94 -275 -267 -288 l-73 -6 0 -59 0 -58 173 7 c220 10 609
10 850 0 l187 -7 0 58 0 59 -82 6 c-111 8 -172 31 -223 82 -83 83 -78 20 -86
1080 -5 807 -8 954 -23 1040 -33 200 -79 306 -183 416 -121 128 -293 190 -528
191 -388 0 -666 -180 -840 -544 l-45 -93 0 1023 c0 967 -1 1022 -17 1021 -10
-1 -57 -12 -104 -25z"/>
<path d="M14310 11046 c0 -31 3 -56 8 -56 4 0 46 -5 92 -10 203 -25 258 -64
299 -210 13 -48 16 -246 18 -1560 4 -1689 3 -1717 -60 -1811 -44 -66 -124 -97
-289 -114 l-68 -7 0 -55 0 -55 93 7 c121 10 992 10 1125 0 l102 -7 0 56 c0 47
-3 56 -17 56 -45 1 -173 22 -220 35 -105 31 -155 106 -173 261 -6 53 -10 394
-10 832 l0 742 40 0 c167 0 295 -83 427 -277 86 -126 852 -1360 874 -1408 47
-102 4 -154 -145 -176 l-76 -11 0 -55 0 -55 98 7 c123 10 838 9 967 0 l96 -7
-3 56 -3 57 -65 23 c-105 36 -189 86 -255 151 -46 46 -214 290 -698 1012 -350
524 -637 954 -637 957 0 12 887 1216 940 1276 103 117 274 228 398 259 23 6
60 16 82 21 l40 11 0 55 0 56 -67 -8 c-85 -10 -710 -10 -860 0 l-113 8 0 -55
0 -56 58 -6 c133 -15 209 -53 242 -121 34 -69 21 -151 -43 -286 -53 -110 -125
-214 -446 -651 -328 -445 -386 -509 -525 -577 -90 -44 -167 -66 -263 -76 l-63
-7 0 669 c0 388 4 706 10 758 18 156 68 230 174 261 42 12 188 35 229 35 4 0
7 25 7 56 l0 56 -87 -8 c-115 -10 -1032 -10 -1145 0 l-88 8 0 -56z"/>
<path d="M21272 10929 c-59 -20 -207 -45 -324 -54 l-78 -7 0 -424 0 -424 -250
0 -250 0 0 -55 0 -55 250 0 250 0 0 -992 c0 -1018 4 -1143 40 -1310 55 -256
214 -434 441 -495 100 -27 313 -25 404 4 224 70 374 265 456 591 37 148 37
149 -8 161 -21 6 -43 11 -50 11 -6 0 -21 -33 -32 -72 -109 -371 -269 -540
-489 -514 -159 19 -251 119 -282 308 -6 40 -10 470 -10 1186 l0 1122 385 0
385 0 0 55 0 55 -385 0 -385 0 0 465 c0 256 -3 464 -7 464 -5 -1 -32 -10 -61
-20z"/>
<path d="M18805 10099 c-134 -11 -275 -48 -391 -103 -124 -59 -201 -114 -294
-212 -197 -206 -310 -474 -361 -854 -17 -125 -17 -545 0 -670 99 -733 474
-1131 1101 -1167 284 -16 573 70 776 230 171 136 315 365 389 622 100 346 106
887 14 1247 -64 251 -191 482 -345 629 -220 208 -534 306 -889 278z m268 -129
c344 -106 527 -584 527 -1375 0 -493 -73 -871 -212 -1102 -44 -74 -137 -174
-196 -212 -195 -125 -455 -96 -621 70 -233 233 -332 653 -318 1349 8 358 33
552 99 760 70 221 199 404 332 472 118 61 268 75 389 38z"/>
<path d="M26434 10100 c-364 -25 -701 -204 -814 -433 -73 -148 -41 -355 70
-449 49 -43 98 -58 183 -58 95 0 165 29 220 90 140 155 73 448 -120 527 -24
10 -43 21 -43 25 0 15 105 99 153 122 86 42 163 58 307 63 299 11 442 -74 506
-302 22 -77 33 -592 14 -659 -33 -120 -145 -201 -486 -352 -423 -186 -616
-295 -746 -422 -144 -140 -204 -268 -215 -457 -18 -324 144 -556 444 -637 102
-27 305 -30 405 -5 238 59 419 183 556 385 l50 72 6 -57 c25 -224 107 -348
260 -395 104 -33 272 -32 375 1 71 24 175 85 250 148 l34 29 -27 47 -28 46
-51 -38 c-79 -59 -116 -74 -179 -75 -70 -1 -103 20 -138 90 l-25 49 -6 990
c-5 870 -8 1000 -23 1074 -31 155 -95 286 -187 381 -144 149 -417 222 -745
200z m439 -2404 c-66 -99 -179 -214 -255 -259 -92 -55 -176 -78 -283 -78 -137
-1 -219 33 -303 125 -75 81 -112 198 -112 358 0 163 35 282 119 406 83 122
179 190 551 387 201 106 249 136 295 185 l30 31 3 -541 2 -542 -47 -72z"/>
</g>
</svg>
